<svg width="1440" height="860" viewBox="0 0 1440 860" fill="none" xmlns="http://www.w3.org/2000/svg">
  <defs>
    <linearGradient id="bg" x1="0" y1="0" x2="1440" y2="860" gradientUnits="userSpaceOnUse">
      <stop stop-color="#11191D"/>
      <stop offset="1" stop-color="#27343A"/>
    </linearGradient>
    <linearGradient id="accent" x1="1050" y1="130" x2="1320" y2="400" gradientUnits="userSpaceOnUse">
      <stop stop-color="#FFC2B1"/>
      <stop offset="1" stop-color="#FF806A"/>
    </linearGradient>
    <filter id="shadow" x="-20%" y="-20%" width="140%" height="150%">
      <feDropShadow dx="0" dy="24" stdDeviation="28" flood-color="#000000" flood-opacity=".35"/>
    </filter>
  </defs>
  <rect width="1440" height="860" fill="#0D1316"/>
  <rect x="34" y="34" width="1372" height="792" fill="url(#bg)" stroke="#536267" stroke-opacity=".6" filter="url(#shadow)"/>
  <rect x="34" y="34" width="1372" height="42" fill="#0B1114"/>
  <rect x="55" y="47" width="18" height="18" fill="url(#accent)"/>
  <text x="84" y="62" fill="#D9E2DF" font-family="Segoe UI, Arial" font-size="14" font-weight="600">Lumen</text>
  <circle cx="1354" cy="55" r="4" fill="#73817F"/><circle cx="1372" cy="55" r="4" fill="#73817F"/><circle cx="1390" cy="55" r="4" fill="#FF8073"/>
  <rect x="34" y="76" width="1372" height="82" fill="#121B1F" stroke="#344247"/>
  <rect x="62" y="101" width="36" height="36" rx="9" fill="url(#accent)"/>
  <text x="75" y="126" fill="#202A2D" font-family="Georgia, serif" font-size="22" font-weight="700">L</text>
  <text x="113" y="121" fill="#F0F5F3" font-family="Segoe UI, Arial" font-size="19" font-weight="700">Lumen</text>
  <text x="113" y="140" fill="#899794" font-family="Segoe UI, Arial" font-size="10" letter-spacing="2">MARKDOWN EDITOR</text>
  <rect x="395" y="105" width="260" height="34" rx="8" fill="#1D282D" stroke="#3C4B50"/>
  <text x="420" y="127" fill="#B6C1BE" font-family="Segoe UI, Arial" font-size="13">产品说明.md</text>
  <rect x="1045" y="103" width="72" height="36" rx="8" fill="#1D282D" stroke="#3C4B50"/><text x="1062" y="126" fill="#B6C1BE" font-family="Segoe UI, Arial" font-size="12">编码</text>
  <rect x="1128" y="103" width="100" height="36" rx="8" fill="#1D282D" stroke="#3C4B50"/><text x="1150" y="126" fill="#E2EAE7" font-family="Segoe UI, Arial" font-size="12">UTF-8</text>
  <rect x="1240" y="103" width="76" height="36" rx="8" fill="#27343A" stroke="#526168"/><text x="1260" y="126" fill="#DDE6E2" font-family="Segoe UI, Arial" font-size="12">上传</text>
  <rect x="1324" y="103" width="62" height="36" rx="8" fill="url(#accent)"/><text x="1340" y="126" fill="#2B2020" font-family="Segoe UI, Arial" font-size="12" font-weight="700">导出</text>
  <rect x="62" y="182" width="1316" height="602" fill="#152126" stroke="#405057"/>
  <rect x="62" y="182" width="1316" height="56" fill="#1B282D" stroke="#34464C"/>
  <rect x="84" y="195" width="156" height="30" rx="7" fill="#2A383D"/><text x="104" y="215" fill="#E8EFEC" font-family="Segoe UI, Arial" font-size="12" font-weight="600">✎ 编辑</text><text x="187" y="215" fill="#91A09B" font-family="Segoe UI, Arial" font-size="12">◉ 预览</text>
  <text x="1160" y="215" fill="#899794" font-family="Segoe UI, Arial" font-size="12">B　I　H　❞　&lt;/&gt;</text>
  <line x1="720" y1="238" x2="720" y2="784" stroke="#405057"/>
  <text x="106" y="282" fill="#7F8D8B" font-family="Consolas, monospace" font-size="14">1</text>
  <text x="140" y="282" fill="#D4DEDA" font-family="Consolas, monospace" font-size="16"># 让想法自然流淌</text>
  <text x="106" y="316" fill="#7F8D8B" font-family="Consolas, monospace" font-size="14">2</text>
  <text x="140" y="316" fill="#B9C7C2" font-family="Consolas, monospace" font-size="15">一个安静、专注的 Markdown 编辑器。</text>
  <text x="106" y="368" fill="#7F8D8B" font-family="Consolas, monospace" font-size="14">4</text>
  <text x="140" y="368" fill="#D4DEDA" font-family="Consolas, monospace" font-size="16">## 设计原则</text>
  <text x="106" y="406" fill="#7F8D8B" font-family="Consolas, monospace" font-size="14">5</text>
  <text x="140" y="406" fill="#B9C7C2" font-family="Consolas, monospace" font-size="15">- 少一点打扰，多一点专注</text>
  <text x="106" y="440" fill="#7F8D8B" font-family="Consolas, monospace" font-size="14">6</text>
  <text x="140" y="440" fill="#B9C7C2" font-family="Consolas, monospace" font-size="15">- 内容始终掌握在本地</text>
  <text x="106" y="474" fill="#7F8D8B" font-family="Consolas, monospace" font-size="14">7</text>
  <text x="140" y="474" fill="#B9C7C2" font-family="Consolas, monospace" font-size="15">- 工具退后，文字向前</text>
  <text x="775" y="290" fill="#F2F6F4" font-family="Georgia, serif" font-size="32" font-weight="700">让想法自然流淌</text>
  <line x1="775" y1="314" x2="1300" y2="314" stroke="#46565B"/>
  <text x="775" y="355" fill="#C6D1CD" font-family="Georgia, serif" font-size="17">一个安静、专注的 Markdown 编辑器。</text>
  <text x="775" y="410" fill="#F2F6F4" font-family="Georgia, serif" font-size="23" font-weight="700">设计原则</text>
  <text x="775" y="452" fill="#C6D1CD" font-family="Georgia, serif" font-size="17">• 少一点打扰，多一点专注</text>
  <text x="775" y="488" fill="#C6D1CD" font-family="Georgia, serif" font-size="17">• 内容始终掌握在本地</text>
  <text x="775" y="524" fill="#C6D1CD" font-family="Georgia, serif" font-size="17">• 工具退后，文字向前</text>
  <text x="775" y="592" fill="#4D8DFF" font-family="Georgia, serif" font-size="17" text-decoration="underline">了解更多 Markdown 语法 →</text>
  <rect x="62" y="748" width="1316" height="36" fill="#1A262A" stroke="#34464C"/><text x="88" y="771" fill="#82918D" font-family="Segoe UI, Arial" font-size="11">已自动保存</text><text x="1180" y="771" fill="#82918D" font-family="Segoe UI, Arial" font-size="11">实时同步　　编码：UTF-8</text>
</svg>
